<svg width="44" height="37" viewBox="0 0 44 37" fill="none" xmlns="http://www.w3.org/2000/svg">
<path d="M0.074707 16.9611C0.074707 16.4088 0.522422 15.9611 1.07471 15.9611H19.8604C20.4127 15.9611 20.8604 16.4088 20.8604 16.9611V28.9726C20.8604 29.5248 20.4127 29.9726 19.8604 29.9726H1.07471C0.522423 29.9726 0.074707 29.5248 0.074707 28.9726V16.9611Z" fill="white"/>
<path d="M22.455 16.9611C22.455 16.4088 22.9027 15.9611 23.455 15.9611H42.2406C42.7929 15.9611 43.2406 16.4088 43.2406 16.9611V28.9726C43.2406 29.5248 42.7929 29.9726 42.2406 29.9726H23.455C22.9027 29.9726 22.455 29.5248 22.455 28.9726V16.9611Z" fill="white"/>
<path d="M0.074707 1C0.074707 0.447715 0.522422 0 1.07471 0H19.8604C20.4127 0 20.8604 0.447715 20.8604 1V13.0026C20.8604 13.5549 20.4127 14.0026 19.8604 14.0026H1.07471C0.522423 14.0026 0.074707 13.5549 0.074707 13.0026V1Z" fill="white"/>
<path d="M22.455 1C22.455 0.447715 22.9027 0 23.455 0H42.2406C42.7929 0 43.2406 0.447715 43.2406 1V13.0026C43.2406 13.5549 42.7929 14.0026 42.2406 14.0026H23.455C22.9027 14.0026 22.455 13.5549 22.455 13.0026V1Z" fill="white"/>
<path d="M0 32.3429C0 31.7906 0.447715 31.3429 1 31.3429H42.4855C43.0378 31.3429 43.4855 31.7906 43.4855 32.3429V33.3109H0V32.3429Z" fill="#FFC501"/>
<path d="M0.0367432 33.2571H6.64799V36.1218C6.64799 36.398 6.42413 36.6218 6.14799 36.6218H0.536743C0.260601 36.6218 0.0367432 36.398 0.0367432 36.1218V33.2571Z" fill="#FFC501"/>
<path d="M36.8564 33.2571H43.4862V36.1218C43.4862 36.398 43.2623 36.6218 42.9862 36.6218H37.3564C37.0803 36.6218 36.8564 36.398 36.8564 36.1218V33.2571Z" fill="#FFC501"/>
<path d="M19.8052 33.2571H23.8229V36.1218C23.8229 36.398 23.599 36.6218 23.3229 36.6218H20.3052C20.029 36.6218 19.8052 36.398 19.8052 36.1218V33.2571Z" fill="#FFC501"/>
</svg>
