<svg width="134" height="60" viewBox="0 0 134 60" fill="none" xmlns="http://www.w3.org/2000/svg">
<path d="M3.27271 47.1313L3.8259 15.1253H9.87149L14.4156 37.2924L19.1572 15.1253H25.0052L25.5979 47.1313H21.2514L20.7773 24.8852L16.2332 47.1313H12.7165L8.09338 24.8061L7.65873 47.1313H3.27271ZM39.0174 47.566C36.752 47.566 34.9475 47.1445 33.6041 46.3016C32.2606 45.4586 31.2991 44.2469 30.7196 42.6663C30.14 41.0858 29.8503 39.2154 29.8503 37.0554V25.0827C29.8503 22.9226 30.14 21.0787 30.7196 19.5508C31.2991 17.9966 32.2606 16.8112 33.6041 15.9946C34.9475 15.178 36.752 14.7697 39.0174 14.7697C41.3356 14.7697 43.1532 15.178 44.4703 15.9946C45.8138 16.8112 46.7753 17.9966 47.3548 19.5508C47.9607 21.0787 48.2636 22.9226 48.2636 25.0827V37.0949C48.2636 39.2286 47.9607 41.0858 47.3548 42.6663C46.7753 44.2205 45.8138 45.4323 44.4703 46.3016C43.1532 47.1445 41.3356 47.566 39.0174 47.566ZM39.0174 43.259C39.9921 43.259 40.7034 43.0483 41.1512 42.6268C41.6253 42.2053 41.9415 41.6258 42.0995 40.8882C42.2576 40.1506 42.3366 39.3472 42.3366 38.4779V23.7393C42.3366 22.8436 42.2576 22.0402 42.0995 21.3289C41.9415 20.6177 41.6253 20.0645 41.1512 19.6694C40.7034 19.2479 39.9921 19.0371 39.0174 19.0371C38.0955 19.0371 37.3974 19.2479 36.9232 19.6694C36.4491 20.0645 36.1329 20.6177 35.9749 21.3289C35.8168 22.0402 35.7378 22.8436 35.7378 23.7393V38.4779C35.7378 39.3472 35.8037 40.1506 35.9354 40.8882C36.0934 41.6258 36.4095 42.2053 36.8837 42.6268C37.3579 43.0483 38.0691 43.259 39.0174 43.259ZM52.6685 47.1313V15.1253H58.477V28.5204H64.9967V15.1253H70.8448V47.1313H64.9967V32.6693H58.477V47.1313H52.6685ZM75.742 47.1313V15.1253H89.1766V19.2347H81.59V28.4414H87.5566V32.5113H81.59V43.101H89.2557V47.1313H75.742ZM92.7224 47.1313V15.1253H98.5309V28.5599H99.7163L104.893 15.1253H110.701L104.616 30.2195L111.175 47.1313H105.248L99.7163 32.3928H98.5309V47.1313H92.7224ZM122.635 47.566C120.29 47.566 118.446 47.105 117.103 46.183C115.786 45.261 114.864 44.0098 114.337 42.4292C113.81 40.8223 113.547 38.9784 113.547 36.8973V25.4779C113.547 23.2914 113.81 21.3948 114.337 19.7879C114.864 18.181 115.786 16.9429 117.103 16.0736C118.446 15.2043 120.29 14.7697 122.635 14.7697C124.848 14.7697 126.573 15.1516 127.811 15.9156C129.076 16.6531 129.971 17.72 130.498 19.1162C131.025 20.5123 131.288 22.1324 131.288 23.9763V26.6633H125.677V23.8973C125.677 23.0017 125.625 22.1851 125.519 21.4475C125.44 20.7099 125.19 20.1303 124.769 19.7089C124.373 19.261 123.675 19.0371 122.674 19.0371C121.673 19.0371 120.936 19.2742 120.462 19.7484C120.014 20.1962 119.724 20.8153 119.592 21.6055C119.461 22.3695 119.395 23.2388 119.395 24.2134V38.1222C119.395 39.2813 119.487 40.2428 119.671 41.0067C119.856 41.7443 120.185 42.3107 120.659 42.7058C121.16 43.0746 121.831 43.259 122.674 43.259C123.649 43.259 124.334 43.0351 124.729 42.5873C125.151 42.1131 125.414 41.4941 125.519 40.7301C125.625 39.9662 125.677 39.1101 125.677 38.1617V35.2773H131.288V37.8456C131.288 39.7423 131.038 41.4282 130.538 42.9034C130.037 44.3522 129.155 45.4981 127.89 46.3411C126.652 47.1577 124.9 47.566 122.635 47.566Z" fill="white"/>
<mask id="mask0_1_637" style="mask-type:alpha" maskUnits="userSpaceOnUse" x="0" y="30" width="134" height="19">
<rect x="0.941406" y="30.0992" width="133.058" height="17.9808" fill="#FFC501"/>
</mask>
<g mask="url(#mask0_1_637)">
<path d="M3.27259 47.1313L3.82578 15.1253H9.87137L14.4154 37.2924L19.1571 15.1253H25.0051L25.5978 47.1313H21.2513L20.7771 24.8852L16.2331 47.1313H12.7164L8.09326 24.8061L7.65861 47.1313H3.27259ZM39.0173 47.566C36.7519 47.566 34.9474 47.1445 33.604 46.3016C32.2605 45.4586 31.299 44.2469 30.7195 42.6663C30.1399 41.0858 29.8502 39.2154 29.8502 37.0554V25.0827C29.8502 22.9226 30.1399 21.0787 30.7195 19.5508C31.299 17.9966 32.2605 16.8112 33.604 15.9946C34.9474 15.178 36.7519 14.7697 39.0173 14.7697C41.3355 14.7697 43.1531 15.178 44.4702 15.9946C45.8137 16.8112 46.7752 17.9966 47.3547 19.5508C47.9606 21.0787 48.2635 22.9226 48.2635 25.0827V37.0949C48.2635 39.2286 47.9606 41.0858 47.3547 42.6663C46.7752 44.2205 45.8137 45.4323 44.4702 46.3016C43.1531 47.1445 41.3355 47.566 39.0173 47.566ZM39.0173 43.259C39.992 43.259 40.7032 43.0483 41.1511 42.6268C41.6252 42.2053 41.9413 41.6258 42.0994 40.8882C42.2574 40.1506 42.3365 39.3472 42.3365 38.4779V23.7393C42.3365 22.8436 42.2574 22.0402 42.0994 21.3289C41.9413 20.6177 41.6252 20.0645 41.1511 19.6694C40.7032 19.2479 39.992 19.0371 39.0173 19.0371C38.0953 19.0371 37.3973 19.2479 36.9231 19.6694C36.4489 20.0645 36.1328 20.6177 35.9748 21.3289C35.8167 22.0402 35.7377 22.8436 35.7377 23.7393V38.4779C35.7377 39.3472 35.8035 40.1506 35.9353 40.8882C36.0933 41.6258 36.4094 42.2053 36.8836 42.6268C37.3578 43.0483 38.069 43.259 39.0173 43.259ZM52.6684 47.1313V15.1253H58.4769V28.5204H64.9966V15.1253H70.8446V47.1313H64.9966V32.6693H58.4769V47.1313H52.6684ZM75.7419 47.1313V15.1253H89.1765V19.2347H81.5899V28.4414H87.5565V32.5113H81.5899V43.101H89.2555V47.1313H75.7419ZM92.7222 47.1313V15.1253H98.5308V28.5599H99.7162L104.892 15.1253H110.701L104.616 30.2195L111.175 47.1313H105.248L99.7162 32.3928H98.5308V47.1313H92.7222ZM122.635 47.566C120.29 47.566 118.446 47.105 117.103 46.183C115.786 45.261 114.864 44.0098 114.337 42.4292C113.81 40.8223 113.547 38.9784 113.547 36.8973V25.4779C113.547 23.2914 113.81 21.3948 114.337 19.7879C114.864 18.181 115.786 16.9429 117.103 16.0736C118.446 15.2043 120.29 14.7697 122.635 14.7697C124.847 14.7697 126.573 15.1516 127.811 15.9156C129.075 16.6531 129.971 17.72 130.498 19.1162C131.025 20.5123 131.288 22.1324 131.288 23.9763V26.6633H125.677V23.8973C125.677 23.0017 125.625 22.1851 125.519 21.4475C125.44 20.7099 125.19 20.1303 124.768 19.7089C124.373 19.261 123.675 19.0371 122.674 19.0371C121.673 19.0371 120.936 19.2742 120.461 19.7484C120.014 20.1962 119.724 20.8153 119.592 21.6055C119.46 22.3695 119.395 23.2388 119.395 24.2134V38.1222C119.395 39.2813 119.487 40.2428 119.671 41.0067C119.856 41.7443 120.185 42.3107 120.659 42.7058C121.16 43.0746 121.831 43.259 122.674 43.259C123.649 43.259 124.334 43.0351 124.729 42.5873C125.15 42.1131 125.414 41.4941 125.519 40.7301C125.625 39.9662 125.677 39.1101 125.677 38.1617V35.2773H131.288V37.8456C131.288 39.7423 131.038 41.4282 130.537 42.9034C130.037 44.3522 129.154 45.4981 127.89 46.3411C126.652 47.1577 124.9 47.566 122.635 47.566Z" fill="#FFC501"/>
</g>
</svg>
